<svg xmlns="http://www.w3.org/2000/svg" width="180" height="180"><path style="fill:#81b3d3;fill-opacity:1;stroke:none" d="M0 0h180v180H0z"/><path style="stroke:none;fill-rule:nonzero;fill:#fff;fill-opacity:1" d="M60.316 111.055c.13.125.192.25.192.375.129 0 .258.058.383.183 3.445 3.711 7.34 7.176 11.683 10.39 4.34 3.09 9.32 4.763 14.934 5.009.129 0 .258.066.383.187h.578c.125 0 .254.063.383.188h2.105c.637-.125 1.211-.25 1.723-.375 2.047-.371 4-1.13 5.746-2.223 1.914-1.117 3.383-2.477 4.402-4.082l.383-.746.383-.738c.258-.868.449-1.672.578-2.414.125-.743.191-1.422.191-2.04 0-3.34-1.535-6.124-4.597-8.351a33.12 33.12 0 0 0-9.575-5.379 28.68 28.68 0 0 0-4.023-1.113 55.09 55.09 0 0 0-3.637-.93h-.383c-.128-.121-.253-.183-.382-.183a63.752 63.752 0 0 1-17.618-7.051c-5.492-3.34-9.257-8.102-11.3-14.285a165.399 165.399 0 0 1-1.149-3.899 43.521 43.521 0 0 1-.574-4.266 5.396 5.396 0 0 1-.191-1.3v-4.45c.129-.992.32-1.98.574-2.968a39.997 39.997 0 0 1 1.914-7.422c.894-2.473 2.043-4.7 3.45-6.68 4.085-6.554 9.316-11.258 15.702-14.101 6.512-2.844 13.278-4.266 20.297-4.266 1.66 0 3.32.121 4.98.371 1.794.125 3.583.309 5.36.555a67.161 67.161 0 0 1 13.598 3.71c4.597 1.735 8.808 3.774 12.64 6.126l-10.535 22.82A73.962 73.962 0 0 0 108 55.215c-3.828-1.86-7.977-2.785-12.445-2.785H94.02c-2.938.37-5.68 1.668-8.235 3.894-2.55 2.102-3.828 4.395-3.828 6.867v1.114c.125.37.316.738.574 1.113.254.867.703 1.668 1.34 2.41.637.742 1.34 1.422 2.106 2.043 1.406 1.113 3.445 2.164 6.128 3.152 2.68.868 5.493 1.73 8.426 2.598 2.426.617 4.785 1.238 7.086 1.856 2.297.496 4.211.988 5.746 1.484 7.149 2.473 12.508 6.617 16.086 12.43 3.57 5.691 5.422 11.75 5.551 18.183v.926c0 .742-.063 1.488-.191 2.227v2.043c-.766 6.43-2.934 12.554-6.512 18.367-3.445 5.812-8.106 10.265-13.977 13.36a61.883 61.883 0 0 1-6.703 2.593 134.186 134.186 0 0 1-6.894 1.672 45.002 45.002 0 0 1-5.743.742c-1.843.242-3.699.367-5.554.371h-2.11c-7.656-.246-15.187-1.855-22.593-4.824-7.407-3.094-13.98-7.176-19.723-12.246Zm0 0"/></svg>