<svg width="16" height="16" fill="none" xmlns="http://www.w3.org/2000/svg"><path fill="#81B3D3" d="M0 0h16v16H0z"/><path d="M5.362 10.042c.01.012.017.024.017.036.011 0 .022.006.034.018.306.36.652.696 1.038 1.007.386.3.828.462 1.328.486.011 0 .022.006.034.018h.05c.012 0 .023.006.035.018h.187c.057-.012.108-.024.153-.036a1.37 1.37 0 00.51-.216 1.15 1.15 0 00.392-.396l.034-.072.034-.071c.023-.084.04-.162.052-.234.01-.072.017-.138.017-.198 0-.324-.137-.594-.409-.81a2.89 2.89 0 00-.851-.522 2.363 2.363 0 00-.358-.107 4.414 4.414 0 00-.323-.09h-.034c-.011-.012-.023-.018-.034-.018a5.407 5.407 0 01-1.566-.684c-.488-.324-.823-.786-1.004-1.385-.036-.126-.07-.252-.102-.378a4.551 4.551 0 01-.051-.414.557.557 0 01-.017-.126v-.432a2.54 2.54 0 01.05-.288c.036-.245.093-.486.17-.72.08-.24.182-.455.307-.647.363-.636.829-1.091 1.396-1.367A4.145 4.145 0 018.255 2c.148 0 .295.012.443.036.16.012.318.03.476.054.414.073.82.194 1.209.36.409.168.783.366 1.124.593l-.937 2.213a6.49 6.49 0 00-.97-.63 2.33 2.33 0 00-1.106-.27h-.137c-.26.037-.505.163-.732.379-.226.203-.34.425-.34.665v.108a.464.464 0 00.051.108.65.65 0 00.12.234c.056.072.118.138.186.198.125.108.307.21.545.306.238.084.488.168.75.252.215.06.425.12.629.18.204.048.374.096.51.144.636.24 1.113.641 1.43 1.205.318.552.483 1.14.494 1.763v.09c0 .072-.006.144-.017.216v.198a4.613 4.613 0 01-.579 1.78c-.306.565-.72.996-1.242 1.296a5.27 5.27 0 01-.596.252c-.203.06-.407.114-.613.162-.168.036-.339.06-.51.072a3.532 3.532 0 01-.494.036h-.187a5.452 5.452 0 01-2.009-.468A6.227 6.227 0 014 12.345l1.362-2.303z" fill="#fff"/></svg>